<svg version="1.1" id="Layer_1" xmlns="http://www.w3.org/2000/svg" xmlns:xlink="http://www.w3.org/1999/xlink" x="0px" y="0px"
	 width="100%" viewBox="0 0 139 76" enable-background="new 0 0 139 76" xml:space="preserve">
<path fill="#000000" opacity="1.000000" stroke="none" 
	d="
M1.000000,64.000000 
	C1.000000,43.063999 1.000000,22.127996 1.000000,1.000000 
	C27.687254,1.000000 54.374969,1.000000 81.674271,1.260601 
	C82.106743,2.085325 81.927628,2.649447 81.384949,3.225664 
	C79.645912,4.139269 78.270447,5.040780 76.621895,6.080162 
	C75.532928,6.791269 74.717049,7.364506 73.630310,8.082590 
	C72.539513,9.131182 71.719574,10.034925 70.646591,11.064588 
	C69.915565,11.761246 69.437584,12.331985 68.673485,13.050823 
	C67.221069,14.448309 66.054764,15.697696 64.613632,17.085205 
	C63.521992,18.132208 62.705181,19.041088 61.612411,20.084377 
	C60.523708,21.126820 59.710968,22.034855 58.620239,23.075697 
	C57.559303,23.862562 56.776352,24.516619 55.614555,25.104952 
	C52.838711,24.321123 50.441711,23.603018 47.832169,22.568518 
	C45.123661,21.556326 42.627705,20.860529 39.741302,20.101448 
	C36.898502,20.080597 34.446140,20.123030 31.617556,20.101357 
	C29.826784,20.414705 28.412235,20.792158 26.623363,21.101645 
	C23.955637,22.445234 21.662235,23.856791 19.198578,25.615646 
	C18.351555,30.581709 17.125824,35.202644 17.144066,39.818665 
	C17.164516,44.994629 20.086111,48.914665 25.124489,51.421379 
	C27.191725,52.428410 29.093529,53.130619 31.419601,53.903400 
	C33.561012,53.927078 35.278160,53.880184 37.415989,53.902912 
	C40.922195,53.329987 44.007721,52.687435 47.387150,52.021217 
	C48.135956,51.705330 48.590855,51.413113 49.388557,51.064934 
	C51.190311,50.021431 52.649261,49.033882 54.422539,48.019955 
	C55.509403,47.365967 56.281940,46.738365 57.354771,45.970573 
	C58.824356,44.887604 59.993652,43.944817 61.517433,43.024460 
	C64.246445,43.975704 66.620979,44.904514 69.367798,45.916607 
	C72.157562,46.611443 74.575035,47.223000 77.333435,48.018791 
	C80.444817,48.744576 83.215248,49.286125 86.354782,49.891624 
	C87.469933,50.016659 88.215988,50.077747 89.240349,50.432842 
	C91.998474,50.764454 94.478279,50.802059 97.387848,50.900986 
	C100.856895,50.577492 103.896194,50.192673 107.261108,49.827469 
	C108.382751,49.524765 109.178780,49.202438 110.325867,48.868732 
	C112.801178,47.596668 114.925415,46.335987 117.367355,44.986961 
	C118.814911,43.609665 119.944756,42.320705 121.319283,40.766464 
	C127.102287,30.382513 123.269737,11.737967 113.883362,3.691713 
	C113.475388,2.612247 113.237694,1.806124 113.000000,1.000000 
	C121.956024,1.000000 130.912048,1.000000 140.000000,1.000000 
	C140.000000,21.687395 140.000000,42.375038 139.531433,63.531326 
	C133.600571,64.000473 128.129868,64.180893 122.679512,63.926151 
	C119.922798,63.797302 118.792427,64.771568 118.633369,67.348389 
	C118.625114,67.482101 118.135574,67.586113 117.546516,67.847580 
	C117.153442,66.553360 116.771812,65.296806 116.377945,63.999958 
	C113.054710,63.999958 110.079399,63.999958 107.104095,63.999958 
	C104.185997,63.999958 101.267899,63.999958 98.000000,63.999958 
	C98.000000,68.778786 98.000000,72.889397 98.000000,77.000000 
	C98.000000,77.000000 97.500000,77.000000 97.248886,76.535889 
	C96.997765,72.148827 96.997765,68.225883 96.997765,63.999493 
	C87.411705,63.999493 78.601860,63.999435 69.792023,63.999508 
	C56.428043,63.999622 43.063652,63.947090 29.700472,64.050552 
	C27.403273,64.068336 25.101521,65.117706 22.818571,65.057487 
	C15.541480,64.865524 8.272260,64.375130 1.000000,64.000000 
z"/>
<path fill="#0E5596" opacity="1.000000" stroke="none" 
	d="
M1.000000,64.476662 
	C8.272260,64.375130 15.541480,64.865524 22.818571,65.057487 
	C25.101521,65.117706 27.403273,64.068336 29.700472,64.050552 
	C43.063652,63.947090 56.428043,63.999622 69.792023,63.999508 
	C78.601860,63.999435 87.411705,63.999493 96.997765,63.999493 
	C96.997765,68.225883 96.997765,72.148827 96.998886,76.535889 
	C64.999969,77.000000 32.999935,77.000000 1.000000,77.000000 
	C1.000000,72.919884 1.000000,68.936607 1.000000,64.476662 
z"/>
<path fill="#D03B24" opacity="1.000000" stroke="none" 
	d="
M98.468658,77.000000 
	C98.000000,72.889397 98.000000,68.778786 98.000000,63.999958 
	C101.267899,63.999958 104.185997,63.999958 107.104095,63.999958 
	C110.079399,63.999958 113.054710,63.999958 116.377945,63.999958 
	C116.771812,65.296806 117.153442,66.553360 117.546516,67.847580 
	C118.135574,67.586113 118.625114,67.482101 118.633369,67.348389 
	C118.792427,64.771568 119.922798,63.797302 122.679512,63.926151 
	C128.129868,64.180893 133.600571,64.000473 139.531433,63.999985 
	C140.000000,68.298561 140.000000,72.597122 140.000000,77.000000 
	C126.312584,77.000000 112.624954,77.000000 98.468658,77.000000 
z"/>
<path fill="#212633" opacity="1.000000" stroke="none" 
	d="
M99.000000,1.000000 
	C101.370560,1.000000 103.741112,1.000000 106.562271,1.432275 
	C107.313339,5.770120 107.613800,9.675690 107.492134,13.449970 
	C105.036217,13.172093 103.002426,13.025505 100.887589,12.501740 
	C100.204361,8.416375 99.602180,4.708188 99.000000,1.000000 
z"/>
<path fill="#273C57" opacity="1.000000" stroke="none" 
	d="
M85.000000,1.000000 
	C86.389000,1.000000 87.777992,1.000000 89.588982,1.419837 
	C91.000412,6.507075 91.989853,11.174476 92.697250,15.998394 
	C91.270958,16.716473 90.126717,17.278032 88.894257,17.471437 
	C87.537361,11.735520 86.268677,6.367760 85.000000,1.000000 
z"/>
<path fill="#284160" opacity="1.000000" stroke="none" 
	d="
M84.625000,1.000000 
	C86.268677,6.367760 87.537361,11.735520 88.630371,17.625156 
	C87.631226,18.709265 86.807739,19.271500 85.890564,19.482012 
	C84.447418,13.824717 83.097969,8.519143 81.748512,3.213570 
	C81.927628,2.649447 82.106743,2.085325 82.142929,1.260601 
	C82.750000,1.000000 83.500000,1.000000 84.625000,1.000000 
z"/>
<path fill="#26364E" opacity="1.000000" stroke="none" 
	d="
M92.979301,15.841877 
	C91.989853,11.174476 91.000412,6.507075 90.005486,1.419837 
	C91.066673,1.000000 92.133339,1.000000 93.686050,1.381294 
	C95.107445,5.787507 96.042801,9.812425 96.697243,13.996143 
	C95.270653,14.717256 94.124977,15.279567 92.979301,15.841877 
z"/>
<path fill="#20212A" opacity="1.000000" stroke="none" 
	d="
M107.914261,13.581260 
	C107.613800,9.675690 107.313339,5.770120 107.006439,1.432275 
	C108.714355,1.000000 110.428719,1.000000 112.571533,1.000000 
	C113.237694,1.806124 113.475388,2.612247 113.636230,3.979160 
	C113.037140,7.349398 112.514893,10.158847 111.660187,13.010715 
	C110.513206,13.394555 109.698669,13.735974 108.719833,13.996811 
	C108.339211,13.809463 108.125458,13.697806 107.914261,13.581260 
z"/>
<path fill="#243044" opacity="1.000000" stroke="none" 
	d="
M96.978157,13.837341 
	C96.042801,9.812425 95.107445,5.787507 94.086044,1.381294 
	C95.388893,1.000000 96.777779,1.000000 98.583336,1.000000 
	C99.602180,4.708188 100.204361,8.416375 100.550766,12.579929 
	C99.189377,13.302645 98.083763,13.569993 96.978157,13.837341 
z"/>
<path fill="#251C20" opacity="1.000000" stroke="none" 
	d="
M111.992645,12.968296 
	C112.514893,10.158847 113.037140,7.349398 113.806511,4.252502 
	C123.269737,11.737967 127.102287,30.382513 120.991959,40.555367 
	C119.947708,38.917484 119.111801,37.234188 119.070724,35.531719 
	C118.942375,30.212292 118.910339,24.872400 119.254211,19.567225 
	C119.431374,16.834000 118.601929,15.454229 115.803635,14.730043 
	C114.390648,13.973004 113.191650,13.470650 111.992645,12.968296 
z"/>
<path fill="#1993D0" opacity="1.000000" stroke="none" 
	d="
M19.368832,25.268347 
	C21.662235,23.856791 23.955637,22.445234 26.451797,21.444002 
	C26.438343,25.292551 26.222134,28.730774 26.135698,32.462502 
	C27.881371,34.490185 29.497269,36.224365 30.913960,38.295380 
	C30.710468,41.004787 30.666399,43.378139 30.712414,45.749748 
	C30.764706,48.444920 30.897522,51.138535 30.995335,53.832825 
	C29.093529,53.130619 27.191725,52.428410 25.208157,51.046036 
	C25.059723,41.575047 24.779840,32.833138 19.368832,25.268347 
z"/>
<path fill="#1698D4" opacity="1.000000" stroke="none" 
	d="
M19.198578,25.615646 
	C24.779840,32.833138 25.059723,41.575047 25.042725,50.741211 
	C20.086111,48.914665 17.164516,44.994629 17.144066,39.818665 
	C17.125824,35.202644 18.351555,30.581709 19.198578,25.615646 
z"/>
<path fill="#2288C6" opacity="1.000000" stroke="none" 
	d="
M47.093246,52.044884 
	C44.007721,52.687435 40.922195,53.329987 37.398445,53.501411 
	C36.305054,48.409283 35.649895,43.788284 35.394524,39.097847 
	C37.850983,38.650620 39.907654,38.272831 42.123142,38.232670 
	C43.885719,43.061829 45.489483,47.553356 47.093246,52.044884 
z"/>
<path fill="#682A20" opacity="1.000000" stroke="none" 
	d="
M106.935493,49.807850 
	C103.896194,50.192673 100.856895,50.577492 97.397499,50.454353 
	C97.335152,45.928867 97.692909,41.911339 98.435616,37.872665 
	C100.862076,37.557682 102.903587,37.263836 105.135437,37.327423 
	C105.862350,41.725853 106.398918,45.766853 106.935493,49.807850 
z"/>
<path fill="#A63620" opacity="1.000000" stroke="none" 
	d="
M85.985687,49.827679 
	C83.215248,49.286125 80.444817,48.744576 77.431984,47.627014 
	C77.831436,42.687340 78.473274,38.323681 79.490463,33.976585 
	C81.924782,34.621590 83.983757,35.250027 86.034882,36.349541 
	C86.013245,41.156307 85.999466,45.491993 85.985687,49.827679 
z"/>
<path fill="#B03721" opacity="1.000000" stroke="none" 
	d="
M79.115120,33.960022 
	C78.473274,38.323681 77.831436,42.687340 77.091049,47.442780 
	C74.575035,47.223000 72.157562,46.611443 69.465805,45.524693 
	C69.443306,40.756397 69.695099,36.463299 70.289093,32.102161 
	C71.091080,31.966064 71.550865,31.898001 72.397049,31.893167 
	C74.894012,32.624271 77.004562,33.292149 79.115120,33.960022 
z"/>
<path fill="#301F20" opacity="1.000000" stroke="none" 
	d="
M116.017624,14.984728 
	C118.601929,15.454229 119.431374,16.834000 119.254211,19.567225 
	C118.910339,24.872400 118.942375,30.212292 119.070724,35.531719 
	C119.111801,37.234188 119.947708,38.917484 120.747284,40.820648 
	C119.944756,42.320705 118.814911,43.609665 117.213760,44.602043 
	C115.821846,39.844578 114.901237,35.383698 114.051804,30.558361 
	C113.972054,27.272419 113.821129,24.350927 113.924652,21.117401 
	C114.791931,18.865150 115.404778,16.924938 116.017624,14.984728 
z"/>
<path fill="#873020" opacity="1.000000" stroke="none" 
	d="
M98.050667,37.893806 
	C97.692909,41.911339 97.335152,45.928867 96.967743,50.393032 
	C94.478279,50.802059 91.998474,50.764454 89.251099,49.962967 
	C89.368088,45.119228 89.752647,41.039375 90.553146,36.966461 
	C93.329620,37.280201 95.690140,37.587002 98.050667,37.893806 
z"/>
<path fill="#D03B24" opacity="1.000000" stroke="none" 
	d="
M40.131744,20.164732 
	C42.627705,20.860529 45.123661,21.556326 47.824127,23.037275 
	C48.017796,27.827534 48.006958,31.832640 47.663704,35.905151 
	C46.884800,36.037399 46.438320,36.102238 45.692879,36.103226 
	C44.986504,36.028019 44.579090,36.016663 44.005470,35.714443 
	C42.548138,34.655281 41.257015,33.886982 39.972191,32.639458 
	C40.029575,28.161732 40.080662,24.163233 40.131744,20.164732 
z"/>
<path fill="#3D2120" opacity="1.000000" stroke="none" 
	d="
M113.980621,30.922817 
	C114.901237,35.383698 115.821846,39.844578 116.896057,44.690384 
	C114.925415,46.335987 112.801178,47.596668 110.335373,48.423889 
	C109.290199,43.963589 108.586578,39.936752 108.111008,35.673328 
	C110.219566,33.932098 112.100098,32.427460 113.980621,30.922817 
z"/>
<path fill="#DA3B23" opacity="1.000000" stroke="none" 
	d="
M39.741302,20.101448 
	C40.080662,24.163233 40.029575,28.161732 39.590271,32.586552 
	C36.434063,32.025005 33.666065,31.037142 31.111389,29.755760 
	C31.547731,26.363317 31.770754,23.264389 31.993778,20.165462 
	C34.446140,20.123030 36.898502,20.080597 39.741302,20.101448 
z"/>
<path fill="#336BA8" opacity="1.000000" stroke="none" 
	d="
M61.162945,43.002029 
	C59.993652,43.944817 58.824356,44.887604 57.207954,45.613136 
	C55.492729,41.231094 54.224609,37.066303 53.086967,32.611946 
	C54.200916,31.219589 55.184391,30.116793 56.510681,29.086624 
	C58.404911,32.356991 59.956318,35.554733 61.331970,39.070549 
	C61.158459,40.593098 61.160702,41.797562 61.162945,43.002029 
z"/>
<path fill="#B73822" opacity="1.000000" stroke="none" 
	d="
M61.517433,43.024460 
	C61.160702,41.797562 61.158459,40.593098 61.527893,38.816811 
	C62.620819,37.205345 63.342072,36.165707 64.402550,35.065350 
	C65.813553,34.283058 66.885338,33.561478 68.254761,32.818810 
	C69.051674,32.477394 69.550934,32.157066 70.018318,31.918228 
	C69.986435,31.999718 69.946892,32.170197 69.946892,32.170197 
	C69.695099,36.463299 69.443306,40.756397 69.093506,45.441414 
	C66.620979,44.904514 64.246445,43.975704 61.517433,43.024460 
z"/>
<path fill="#1D8ECB" opacity="1.000000" stroke="none" 
	d="
M34.994732,39.167286 
	C35.649895,43.788284 36.305054,48.409283 36.977760,53.431786 
	C35.278160,53.880184 33.561012,53.927078 31.419601,53.903400 
	C30.897522,51.138535 30.764706,48.444920 30.712414,45.749748 
	C30.666399,43.378139 30.710468,41.004787 31.261702,38.319862 
	C32.870678,38.394108 33.932705,38.780697 34.994732,39.167286 
z"/>
<path fill="#C93922" opacity="1.000000" stroke="none" 
	d="
M56.167870,29.014000 
	C55.184391,30.116793 54.200916,31.219589 52.805122,32.738354 
	C51.580563,34.066216 50.768326,34.978104 49.629204,35.933960 
	C48.866920,35.931198 48.431522,35.884472 47.996124,35.837746 
	C48.006958,31.832640 48.017796,27.827534 48.036674,23.353670 
	C50.441711,23.603018 52.838711,24.321123 55.613991,25.490513 
	C56.050808,26.965864 56.109337,27.989933 56.167870,29.014000 
z"/>
<path fill="#E23C24" opacity="1.000000" stroke="none" 
	d="
M31.617554,20.101357 
	C31.770754,23.264389 31.547731,26.363317 30.790363,29.864700 
	C28.839319,30.901104 27.422621,31.535051 26.005924,32.168999 
	C26.222134,28.730774 26.438343,25.292551 26.826118,21.511969 
	C28.412235,20.792158 29.826784,20.414705 31.617554,20.101357 
z"/>
<path fill="#2E5785" opacity="1.000000" stroke="none" 
	d="
M72.010643,31.829937 
	C71.550865,31.898001 71.091080,31.966064 70.289093,32.102161 
	C69.946892,32.170197 69.986435,31.999718 69.991119,31.519516 
	C68.293365,26.341902 66.590912,21.644493 64.888466,16.947083 
	C66.054764,15.697696 67.221069,14.448309 68.836792,13.389965 
	C71.231384,18.731178 73.176544,23.881350 74.977036,29.305367 
	C73.891800,30.329454 72.951218,31.079697 72.010643,31.829937 
z"/>
<path fill="#2C527D" opacity="1.000000" stroke="none" 
	d="
M75.121704,29.031521 
	C73.176544,23.881350 71.231384,18.731178 69.122910,13.241865 
	C69.437584,12.331985 69.915565,11.761246 70.928650,11.282263 
	C72.361694,12.927051 73.424950,14.409658 74.122810,16.047918 
	C75.533386,19.359324 76.745621,22.755215 77.903587,26.382660 
	C76.885590,27.443211 76.003647,28.237368 75.121704,29.031521 
z"/>
<path fill="#294568" opacity="1.000000" stroke="none" 
	d="
M81.384949,3.225664 
	C83.097969,8.519143 84.447418,13.824717 85.657059,19.605165 
	C84.966919,20.510839 84.416603,20.941637 83.547028,21.112595 
	C82.267746,18.675022 81.281998,16.508175 80.354118,14.316823 
	C79.176514,11.535711 78.045868,8.734714 76.894974,5.942291 
	C78.270447,5.040780 79.645912,4.139269 81.384949,3.225664 
z"/>
<path fill="#2F77B7" opacity="1.000000" stroke="none" 
	d="
M47.663704,35.905151 
	C48.431522,35.884472 48.866920,35.931198 49.774147,36.291451 
	C51.533386,40.418766 52.820801,44.232552 54.108215,48.046341 
	C52.649261,49.033882 51.190311,50.021431 49.364471,50.646790 
	C47.995667,45.578762 46.993755,40.872921 45.991844,36.167080 
	C46.438320,36.102238 46.884800,36.037399 47.663704,35.905151 
z"/>
<path fill="#2B4D76" opacity="1.000000" stroke="none" 
	d="
M78.039650,26.116266 
	C76.745621,22.755215 75.533386,19.359324 74.122810,16.047918 
	C73.424950,14.409658 72.361694,12.927051 71.181702,11.156343 
	C71.719574,10.034925 72.539513,9.131182 73.910576,8.312715 
	C76.321854,13.639819 78.182007,18.881647 79.909782,24.379406 
	C79.198158,25.128979 78.618904,25.622623 78.039650,26.116266 
z"/>
<path fill="#2F5B8D" opacity="1.000000" stroke="none" 
	d="
M64.613632,17.085205 
	C66.590912,21.644493 68.293365,26.341902 70.023010,31.438026 
	C69.550934,32.157066 69.051674,32.477394 68.062653,32.528221 
	C65.678055,28.155807 63.783215,24.052887 61.888374,19.949968 
	C62.705181,19.041088 63.521992,18.132208 64.613632,17.085205 
z"/>
<path fill="#2A496F" opacity="1.000000" stroke="none" 
	d="
M80.042160,24.123478 
	C78.182007,18.881647 76.321854,13.639819 74.181427,8.167867 
	C74.717049,7.364506 75.532928,6.791269 76.621895,6.080161 
	C78.045868,8.734714 79.176514,11.535711 80.354118,14.316823 
	C81.281998,16.508175 82.267746,18.675022 83.276207,21.325087 
	C82.230476,22.572773 81.136322,23.348125 80.042160,24.123478 
z"/>
<path fill="#2A7DBD" opacity="1.000000" stroke="none" 
	d="
M45.692879,36.103226 
	C46.993755,40.872921 47.995667,45.578762 49.021667,50.702751 
	C48.590855,51.413113 48.135956,51.705330 47.387150,52.021217 
	C45.489483,47.553356 43.885719,43.061829 42.257416,37.953537 
	C42.879147,36.892948 43.525414,36.449123 44.171680,36.005302 
	C44.579090,36.016663 44.986504,36.028019 45.692879,36.103226 
z"/>
<path fill="#31649C" opacity="1.000000" stroke="none" 
	d="
M56.510685,29.086626 
	C56.109337,27.989933 56.050808,26.965864 55.992836,25.556236 
	C56.776352,24.516619 57.559303,23.862562 58.903465,23.294321 
	C60.997562,27.295446 62.530445,31.210754 64.063324,35.126064 
	C63.342072,36.165707 62.620819,37.205345 61.703644,38.498730 
	C59.956318,35.554733 58.404911,32.356991 56.510685,29.086626 
z"/>
<path fill="#3370B0" opacity="1.000000" stroke="none" 
	d="
M54.422539,48.019958 
	C52.820801,44.232552 51.533386,40.418766 50.101028,36.247486 
	C50.768326,34.978104 51.580563,34.066216 52.674644,33.027916 
	C54.224609,37.066303 55.492729,41.231094 56.907661,45.753326 
	C56.281940,46.738365 55.509403,47.365967 54.422539,48.019958 
z"/>
<path fill="#305F94" opacity="1.000000" stroke="none" 
	d="
M64.402550,35.065350 
	C62.530445,31.210754 60.997562,27.295446 59.181450,23.161512 
	C59.710968,22.034855 60.523708,21.126820 61.612411,20.084377 
	C63.783215,24.052887 65.678055,28.155807 67.764999,32.549316 
	C66.885338,33.561478 65.813553,34.283058 64.402550,35.065350 
z"/>
<path fill="#512520" opacity="1.000000" stroke="none" 
	d="
M107.882965,35.909920 
	C108.586578,39.936752 109.290199,43.963589 109.984306,48.435268 
	C109.178780,49.202438 108.382751,49.524765 107.261108,49.827469 
	C106.398918,45.766853 105.862350,41.725853 105.362350,37.098011 
	C106.226936,36.310749 107.054955,36.110336 107.882965,35.909920 
z"/>
<path fill="#9A3420" opacity="1.000000" stroke="none" 
	d="
M90.137207,36.959522 
	C89.752647,41.039375 89.368088,45.119228 88.972786,49.668961 
	C88.215988,50.077747 87.469933,50.016659 86.354782,49.891624 
	C85.999466,45.491993 86.013245,41.156307 86.401665,36.391003 
	C87.896606,36.294098 89.016907,36.626808 90.137207,36.959522 
z"/>
<path fill="#000000" opacity="1.000000" stroke="none" 
	d="
M90.553146,36.966461 
	C89.016907,36.626808 87.896606,36.294098 86.409515,35.919922 
	C83.983757,35.250027 81.924782,34.621590 79.490463,33.976585 
	C77.004562,33.292149 74.894012,32.624271 72.397049,31.893169 
	C72.951218,31.079697 73.891800,30.329454 74.977036,29.305368 
	C76.003647,28.237368 76.885590,27.443211 77.903587,26.382660 
	C78.618904,25.622623 79.198158,25.128979 79.909782,24.379406 
	C81.136322,23.348125 82.230476,22.572773 83.595459,21.584929 
	C84.416603,20.941637 84.966919,20.510839 85.750748,19.956888 
	C86.807739,19.271500 87.631226,18.709265 88.718597,17.993313 
	C90.126717,17.278032 91.270958,16.716473 92.697250,15.998395 
	C94.124977,15.279567 95.270653,14.717256 96.697243,13.996143 
	C98.083763,13.569993 99.189377,13.302645 100.631805,12.957106 
	C103.002426,13.025505 105.036217,13.172093 107.492134,13.449970 
	C108.125458,13.697806 108.339211,13.809463 108.806122,14.343431 
	C110.594551,16.990236 112.132378,19.209837 113.670204,21.429438 
	C113.821129,24.350927 113.972054,27.272419 114.051804,30.558363 
	C112.100098,32.427460 110.219566,33.932098 108.111008,35.673332 
	C107.054955,36.110336 106.226936,36.310749 105.172012,36.740578 
	C102.903587,37.263836 100.862076,37.557682 98.435616,37.872665 
	C95.690140,37.587002 93.329620,37.280201 90.553146,36.966461 
z"/>
<path fill="#3D2120" opacity="1.000000" stroke="none" 
	d="
M113.924652,21.117401 
	C112.132378,19.209837 110.594551,16.990236 108.970428,14.424014 
	C109.698669,13.735974 110.513206,13.394555 111.660187,13.010715 
	C113.191650,13.470650 114.390648,13.973004 115.803635,14.730043 
	C115.404778,16.924938 114.791931,18.865150 113.924652,21.117401 
z"/>
<path fill="#000000" opacity="1.000000" stroke="none" 
	d="
M44.005470,35.714439 
	C43.525414,36.449123 42.879147,36.892948 42.098602,37.615906 
	C39.907654,38.272831 37.850983,38.650620 35.394524,39.097847 
	C33.932705,38.780697 32.870678,38.394108 31.460907,37.983032 
	C29.497269,36.224365 27.881371,34.490185 26.135698,32.462502 
	C27.422621,31.535051 28.839319,30.901104 30.577042,30.158215 
	C33.666065,31.037142 36.434063,32.025005 39.583977,33.065777 
	C41.257015,33.886982 42.548138,34.655281 44.005470,35.714439 
z"/>
</svg>