<?xml version="1.0" encoding="UTF-8"?>
<!DOCTYPE svg PUBLIC "-//W3C//DTD SVG 1.1//EN" "http://www.w3.org/Graphics/SVG/1.1/DTD/svg11.dtd">
<!-- Creator: CorelDRAW 2020 (64-Bit Оценочная версия) -->
<svg xmlns="http://www.w3.org/2000/svg" xml:space="preserve" width="375px" height="220px" version="1.1" style="shape-rendering:geometricPrecision; text-rendering:geometricPrecision; image-rendering:optimizeQuality; fill-rule:evenodd; clip-rule:evenodd"
viewBox="0 0 375 220"
 xmlns:xlink="http://www.w3.org/1999/xlink"
 xmlns:xodm="http://www.corel.com/coreldraw/odm/2003">
 <defs>
  <style type="text/css">
   <![CDATA[
    .str0 {stroke:#FEFEFE;stroke-width:8.86;stroke-miterlimit:22.9256}
    .fil0 {fill:none}
   ]]>
  </style>
 </defs>
 <g id="Слой_x0020_1">
  <metadata id="CorelCorpID_0Corel-Layer"/>
  <g id="_2357738581056">
   <path class="fil0 str0" d="M309.23 34.23l0 0c-16.29,0 -29.63,13.33 -29.63,29.63l0 21.14c0,16.3 13.34,29.63 29.63,29.63l0 0c16.3,0 29.63,-13.33 29.63,-29.63l0 -21.14c0,-16.3 -13.33,-29.63 -29.63,-29.63z"/>
   <path class="fil0 str0" d="M59.32 34.23l0 0c-16.3,0 -29.63,13.33 -29.63,29.63l0 21.14c0,16.3 13.33,29.63 29.63,29.63l0 0c16.29,0 29.63,-13.33 29.63,-29.63l0 -21.14c0,-16.3 -13.34,-29.63 -29.63,-29.63z"/>
   <path class="fil0 str0" d="M184.43 8.5l0 0c-18.4,0 -33.46,15.05 -33.46,33.46l0 23.87c0,18.4 15.06,33.46 33.46,33.46l0 0c18.4,0 33.46,-15.06 33.46,-33.46l0 -23.87c0,-18.41 -15.06,-33.46 -33.46,-33.46z"/>
   <path class="fil0 str0" d="M109.74 189.91l0 -24.34c0,-48.38 -100.85,-43.92 -100.85,0l0 24.34 100.85 0z"/>
   <path class="fil0 str0" d="M359.66 189.91l0 -24.34c0,-48.38 -100.85,-43.92 -100.85,0l0 24.34 100.85 0z"/>
   <path class="fil0 str0" d="M241.37 214.04l0 -57.23c0,-54.63 -113.88,-49.6 -113.88,0l0 57.23 113.88 0z"/>
  </g>
 </g>
</svg>
